# xmcd CD database file
# Copyright (C) 1997 Ti Kan
# 
# Track frame offsets:
#     150
#     21102
#     55807
#     84922
#     123995
#     145510
#     168870
#     204925
#     229682
# 
# Disc length: 3379 seconds
# 
# Revision: 1
# Processed by: cddbd v1.4b41PL1 Copyright (c) Steve Scherf et al.
# Submitted via: DiscPlay 4.0.4
# 
DISCID=630d3109
DTITLE=Jimmy Dawkins - Feel The Blues
DYEAR=1900
DGENRE=
TTITLE0=(If You Got To) Love Somebody
TTITLE1=Highway Man
TTITLE2=So Good To Me
TTITLE3=Last Days
TTITLE4=Feel The Blues
TTITLE5=Christmas Time Blues
TTITLE6=Have A Little Mercy
TTITLE7=We Got To Go
TTITLE8=So Good To Be Me (alternate take)
EXTD=
EXTT0=
EXTT1=
EXTT2=
EXTT3=
EXTT4=
EXTT5=
EXTT6=
EXTT7=
EXTT8=
PLAYORDER=
